<svg xmlns="http://www.w3.org/2000/svg" viewBox="0 0 256 256" role="img" aria-labelledby="title desc">
  <title id="title">QuickCorn app icon</title>
  <desc id="desc">A cornhole board with a corn kernel badge for the QuickCorn scoring app.</desc>
  <defs>
    <linearGradient id="bg" x1="0" y1="0" x2="1" y2="1">
      <stop offset="0%" stop-color="#13283d" />
      <stop offset="100%" stop-color="#0b1624" />
    </linearGradient>
    <linearGradient id="board" x1="0" y1="0" x2="1" y2="1">
      <stop offset="0%" stop-color="#f6f0d8" />
      <stop offset="100%" stop-color="#dcbf7d" />
    </linearGradient>
    <linearGradient id="corn" x1="0" y1="0" x2="0" y2="1">
      <stop offset="0%" stop-color="#ffd95a" />
      <stop offset="100%" stop-color="#f0b21f" />
    </linearGradient>
    <filter id="shadow" x="-20%" y="-20%" width="140%" height="140%">
      <feDropShadow dx="0" dy="10" stdDeviation="12" flood-color="#000000" flood-opacity="0.28" />
    </filter>
  </defs>
  <rect width="256" height="256" rx="56" fill="url(#bg)" />
  <circle cx="196" cy="60" r="26" fill="#2d4f6f" opacity="0.45" />
  <circle cx="58" cy="192" r="34" fill="#18324b" opacity="0.55" />
  <g filter="url(#shadow)">
    <path d="M78 46h88c10 0 18 8 18 18v126c0 11-9 20-20 20H92c-11 0-20-9-20-20V64c0-10 8-18 18-18Z" fill="url(#board)" />
    <path d="M86 56h72c9 0 16 7 16 16v109c0 10-8 18-18 18h-56c-10 0-18-8-18-18V72c0-9 7-16 16-16Z" fill="#f7f2e4" opacity="0.92" />
    <circle cx="128" cy="92" r="17" fill="#10243a" />
    <path d="M101 164c17-12 37-19 58-19 10 0 19 2 28 5v25c-8-5-18-8-29-8-24 0-43 13-56 24l-18-14c5-5 10-9 17-13Z" fill="#e33a2f" />
    <path d="M69 160c10-8 22-14 34-18l19 15c-17 5-32 15-43 31l-24-8c4-7 8-14 14-20Z" fill="#1771e6" />
  </g>
  <g transform="translate(156 138)">
    <path d="M18 3c16 0 28 14 28 31s-12 31-28 31S-10 51-10 34 2 3 18 3Z" fill="#0f2235" opacity="0.38" />
    <path d="M20 0c16 0 28 14 28 31S36 62 20 62-8 48-8 31 4 0 20 0Z" fill="#2d5d3c" />
    <path d="M20 7c11 0 20 11 20 24S31 55 20 55 0 44 0 31 9 7 20 7Z" fill="url(#corn)" />
    <path d="M20 10c-7 0-12 10-12 21s5 21 12 21 12-10 12-21-5-21-12-21Z" fill="#ffea93" opacity="0.7" />
    <path d="M20 8v47M8 14c7 4 18 4 25 0M6 26c9 5 20 5 29 0M6 39c9 5 20 5 29 0M8 49c7 4 18 4 25 0" fill="none" stroke="#d19113" stroke-linecap="round" stroke-width="3.2" />
    <path d="M-2 29c0-16 10-28 22-28-18 10-16 53 0 61C8 62-2 46-2 29Z" fill="#5e9b4e" />
  </g>
</svg>
